<svg width="961" height="556" viewBox="0 0 961 556" fill="none" xmlns="http://www.w3.org/2000/svg">
<path d="M22.3341 13.2827H612.379C617.974 13.2827 623.34 15.1934 627.296 18.5946C631.252 21.9958 633.475 26.6087 633.475 31.4187V554.936H1.23804V31.4187C1.23804 26.6087 3.46065 21.9958 7.41693 18.5946C11.3732 15.1934 16.739 13.2827 22.3341 13.2827Z" fill="#455A64"/>
<path d="M633.426 556H1.23803C0.911669 555.995 0.600434 555.881 0.369618 555.682C0.138802 555.484 0.00633889 555.216 0 554.936V31.4187C0 26.3377 2.34783 21.4649 6.52699 17.8721C10.7062 14.2793 16.3743 12.2609 22.2845 12.2609H612.379C618.289 12.2609 623.957 14.2793 628.137 17.8721C632.316 21.4649 634.664 26.3377 634.664 31.4187V554.936C634.657 555.216 634.525 555.484 634.294 555.682C634.063 555.881 633.752 555.995 633.426 556ZM2.47606 553.871H632.188V31.4187C632.188 26.9023 630.101 22.5709 626.386 19.3773C622.671 16.1837 617.633 14.3896 612.379 14.3896H22.334C17.0805 14.3896 12.0422 16.1837 8.32735 19.3773C4.61254 22.5709 2.52557 26.9023 2.52557 31.4187L2.47606 553.871Z" fill="#455A64"/>
<path d="M36.7447 0.915318H626.715C629.496 0.915276 632.25 1.38788 634.817 2.30595C637.385 3.22401 639.716 4.56943 641.677 6.2648C643.637 7.96017 645.188 9.97205 646.241 12.1847C647.294 14.3974 647.828 16.7671 647.811 19.1577V542.547H15.6487V19.1577C15.6324 16.7671 16.166 14.3974 17.2188 12.1847C18.2717 9.97205 19.8231 7.96017 21.7836 6.2648C23.7442 4.56943 26.0753 3.22401 28.6429 2.30595C31.2105 1.38788 33.9639 0.915276 36.7447 0.915318Z" fill="#CCCCCC"/>
<path d="M647.811 543.611H15.6487C15.3203 543.611 15.0054 543.499 14.7733 543.3C14.5411 543.1 14.4106 542.829 14.4106 542.547V19.1577C14.4106 14.0768 16.7585 9.20394 20.9376 5.61117C25.1168 2.0184 30.785 0 36.6952 0H626.716C632.626 0 638.294 2.0184 642.473 5.61117C646.652 9.20394 649 14.0768 649 19.1577V542.547C649 542.822 648.877 543.087 648.655 543.285C648.433 543.483 648.131 543.6 647.811 543.611ZM16.8619 541.483H646.573V19.1577C646.573 14.6413 644.487 10.3099 640.772 7.11634C637.057 3.92277 632.019 2.12864 626.765 2.12864H36.7447C31.4912 2.12864 26.4528 3.92277 22.738 7.11634C19.0232 10.3099 16.9362 14.6413 16.9362 19.1577L16.8619 541.483Z" fill="#455A64"/>
<path d="M36.7447 0.915318H626.715C629.496 0.915276 632.25 1.38788 634.817 2.30595C637.385 3.22401 639.716 4.56943 641.677 6.2648C643.637 7.96017 645.188 9.97205 646.241 12.1847C647.294 14.3974 647.828 16.7671 647.811 19.1577V52.7902H15.6487V19.1577C15.6324 16.7671 16.166 14.3974 17.2188 12.1847C18.2717 9.97205 19.8231 7.96017 21.7836 6.2648C23.7442 4.56943 26.0753 3.22401 28.6429 2.30595C31.2105 1.38788 33.9639 0.915276 36.7447 0.915318Z" fill="#455A64"/>
<path d="M647.811 53.7481H15.6487C15.3203 53.7481 15.0054 53.636 14.7733 53.4364C14.5411 53.2368 14.4106 52.966 14.4106 52.6838V19.1577C14.4106 14.0768 16.7585 9.20394 20.9376 5.61117C25.1168 2.0184 30.785 0 36.6952 0H626.715C632.626 0 638.294 2.0184 642.473 5.61117C646.652 9.20394 649 14.0768 649 19.1577V52.7902C648.97 53.0465 648.833 53.2847 648.615 53.4609C648.396 53.637 648.111 53.7391 647.811 53.7481ZM16.8619 51.6194H646.573V19.1577C646.573 14.6413 644.486 10.3099 640.772 7.11634C637.057 3.92277 632.018 2.12864 626.765 2.12864H36.7447C31.4912 2.12864 26.4528 3.92277 22.738 7.11634C19.0232 10.3099 16.9362 14.6413 16.9362 19.1577L16.8619 51.6194Z" fill="#455A64"/>
<path d="M546.12 28.4599C546.12 26.7759 545.539 25.1297 544.451 23.7294C543.362 22.3292 541.815 21.2379 540.006 20.5935C538.196 19.949 536.204 19.7804 534.283 20.1089C532.362 20.4375 530.597 21.2484 529.212 22.4392C527.827 23.63 526.884 25.1471 526.502 26.7988C526.119 28.4504 526.316 30.1624 527.065 31.7183C527.815 33.2741 529.084 34.6039 530.713 35.5395C532.342 36.4751 534.257 36.9744 536.215 36.9744C538.842 36.9744 541.361 36.0774 543.219 34.4806C545.076 32.8838 546.12 30.7181 546.12 28.4599Z" fill="#CCCCCC"/>
<path d="M536.314 37.9536C534.123 37.9578 531.98 37.4028 530.156 36.3589C528.332 35.315 526.91 33.8292 526.069 32.0897C525.228 30.3502 525.007 28.4353 525.433 26.5875C525.859 24.7398 526.914 23.0425 528.463 21.7105C530.013 20.3785 531.987 19.4719 534.137 19.1054C536.286 18.7389 538.513 18.9292 540.537 19.652C542.56 20.3748 544.288 21.5976 545.503 23.1656C546.717 24.7336 547.363 26.5762 547.358 28.4599C547.358 30.9778 546.194 33.3925 544.123 35.173C542.052 36.9534 539.243 37.9536 536.314 37.9536ZM536.314 21.0735C534.614 21.0693 532.95 21.4989 531.534 22.308C530.118 23.117 529.013 24.2691 528.359 25.6185C527.705 26.9678 527.531 28.4536 527.86 29.8878C528.189 31.322 529.005 32.6401 530.205 33.6753C531.406 34.7104 532.937 35.416 534.604 35.7027C536.272 35.9895 538 35.8444 539.572 35.286C541.143 34.7276 542.487 33.7809 543.432 32.5657C544.377 31.3506 544.882 29.9217 544.882 28.4599C544.882 26.5046 543.98 24.629 542.374 23.2444C540.768 21.8598 538.589 21.0791 536.314 21.0735Z" fill="#455A64"/>
<path d="M575.585 28.4599C575.585 26.7759 575.004 25.1297 573.916 23.7294C572.827 22.3292 571.281 21.2379 569.471 20.5935C567.661 19.949 565.67 19.7804 563.748 20.1089C561.827 20.4375 560.062 21.2484 558.677 22.4392C557.292 23.63 556.349 25.1471 555.967 26.7988C555.585 28.4504 555.781 30.1624 556.53 31.7183C557.28 33.2741 558.549 34.6039 560.178 35.5395C561.807 36.4751 563.722 36.9744 565.681 36.9744C568.307 36.9744 570.827 36.0774 572.684 34.4806C574.541 32.8838 575.585 30.7181 575.585 28.4599Z" fill="#CCCCCC"/>
<path d="M565.755 37.9536C563.565 37.9536 561.424 37.395 559.603 36.3485C557.783 35.3021 556.364 33.8148 555.527 32.0749C554.69 30.335 554.472 28.4208 554.901 26.5745C555.33 24.7282 556.387 23.0328 557.937 21.7029C559.488 20.3731 561.462 19.4686 563.611 19.1038C565.759 18.7391 567.986 18.9306 570.008 19.654C572.03 20.3774 573.756 21.6003 574.97 23.1678C576.183 24.7354 576.828 26.5771 576.823 28.4599C576.823 29.7084 576.536 30.9447 575.98 32.0979C575.423 33.2511 574.608 34.2986 573.58 35.1805C572.552 36.0623 571.331 36.7612 569.989 37.2371C568.646 37.7129 567.207 37.9564 565.755 37.9536ZM565.755 21.0735C564.056 21.0735 562.394 21.5067 560.981 22.3183C559.568 23.13 558.467 24.2836 557.817 25.6332C557.167 26.9829 556.996 28.4681 557.328 29.9009C557.66 31.3337 558.478 32.6498 559.679 33.6828C560.881 34.7158 562.412 35.4193 564.079 35.7043C565.745 35.9893 567.473 35.8431 569.043 35.284C570.613 34.7249 571.955 33.7782 572.899 32.5635C573.843 31.3488 574.347 29.9208 574.347 28.4599C574.347 26.5009 573.442 24.6221 571.83 23.2369C570.219 21.8517 568.034 21.0735 565.755 21.0735Z" fill="#455A64"/>
<path d="M604.951 28.4599C604.951 26.7759 604.37 25.1297 603.282 23.7294C602.193 22.3292 600.647 21.2379 598.837 20.5935C597.027 19.949 595.036 19.7804 593.114 20.1089C591.193 20.4375 589.428 21.2484 588.043 22.4392C586.658 23.63 585.715 25.1471 585.333 26.7988C584.951 28.4504 585.147 30.1624 585.896 31.7183C586.646 33.2741 587.915 34.6039 589.544 35.5395C591.173 36.4751 593.088 36.9744 595.047 36.9744C597.673 36.9744 600.193 36.0774 602.05 34.4806C603.907 32.8838 604.951 30.7181 604.951 28.4599Z" fill="#455A64"/>
<path d="M595.195 37.9536C593.005 37.9536 590.864 37.395 589.044 36.3485C587.223 35.3021 585.804 33.8148 584.967 32.0749C584.13 30.335 583.913 28.4208 584.342 26.5745C584.771 24.7282 585.827 23.0328 587.378 21.7029C588.928 20.3731 590.903 19.4686 593.051 19.1038C595.2 18.7391 597.426 18.9306 599.448 19.654C601.47 20.3774 603.197 21.6003 604.41 23.1678C605.623 24.7354 606.268 26.5771 606.263 28.4599C606.263 29.7084 605.977 30.9447 605.42 32.0979C604.864 33.2511 604.048 34.2986 603.02 35.1805C601.992 36.0623 600.772 36.7612 599.429 37.2371C598.086 37.7129 596.648 37.9564 595.195 37.9536ZM595.195 21.0735C593.496 21.0735 591.835 21.5067 590.422 22.3183C589.009 23.13 587.908 24.2836 587.257 25.6332C586.607 26.9829 586.437 28.4681 586.768 29.9009C587.1 31.3337 587.918 32.6498 589.12 33.6828C590.322 34.7158 591.852 35.4193 593.519 35.7043C595.186 35.9893 596.913 35.8431 598.483 35.284C600.053 34.7249 601.395 33.7782 602.339 32.5635C603.283 31.3488 603.787 29.9208 603.787 28.4599C603.787 26.5009 602.882 24.6221 601.271 23.2369C599.659 21.8517 597.474 21.0735 595.195 21.0735Z" fill="#455A64"/>
</svg>
