<svg width="376" height="173" viewBox="0 0 376 173" fill="none" xmlns="http://www.w3.org/2000/svg">
<path d="M263.814 70.2498C261.193 76.7363 258.497 71.5228 258.928 44.3507C259.124 31.6118 260.023 5.59096 274.11 11.3193C287.635 16.823 269.804 55.3113 269.804 55.3113L263.814 70.2498ZM283.161 74.1061C283.161 74.1061 312.523 43.5083 301.516 33.905C290.05 23.9178 280.755 48.2351 276.422 60.2159C267.193 85.7781 268.054 91.5813 272.678 86.3116L283.161 74.1061ZM289.357 101.568C289.357 101.568 316.239 82.4272 309.21 73.4884C301.89 64.1939 291.257 81.435 286.212 89.9714C275.458 108.177 275.27 112.744 279.539 109.375L289.357 101.568ZM296.63 128.946C296.63 128.946 323.512 109.805 316.483 100.866C309.172 91.5625 298.539 108.813 293.494 117.34C282.73 135.545 282.543 140.113 286.821 136.743L296.63 128.946ZM249.68 73.9096C249.68 73.9096 212.062 54.3285 205.95 67.5916C199.576 81.407 225.531 83.5036 238.242 84.2805C265.386 85.9465 270.703 83.4942 264.347 80.5365L249.68 73.9096ZM254.978 95.4376C254.978 95.4376 214.225 83.7189 210.864 97.9367C207.364 112.754 233.197 109.646 245.833 107.886C272.753 104.142 277.489 100.67 270.684 99.0693L254.978 95.4376ZM264.338 118.931C264.338 118.931 229.594 109.974 227.085 122.076C224.474 134.665 246.264 131.436 256.887 129.658C279.567 125.867 283.489 122.825 277.695 121.627L264.338 118.931ZM269.776 138.334C269.776 138.334 236.183 125.736 232.402 137.501C228.461 149.754 250.476 148.855 261.23 148.209C284.181 146.843 288.374 144.241 282.758 142.434L269.776 138.334ZM247.312 40.0545C247.312 40.0545 231.98 -7.60664 214.552 1.05136C196.431 10.065 217.36 31.5556 227.834 41.8422C250.176 63.8008 257.093 65.3358 254.154 57.67L247.312 40.0545Z" fill="#7B2869"/>
<path opacity="0.65" d="M263.814 70.2498C261.193 76.7363 258.497 71.5228 258.928 44.3507C259.124 31.6118 260.023 5.59096 274.11 11.3193C287.635 16.823 269.804 55.3113 269.804 55.3113L263.814 70.2498ZM283.161 74.1061C283.161 74.1061 312.523 43.5083 301.516 33.905C290.05 23.9178 280.755 48.2351 276.422 60.2159C267.193 85.7781 268.054 91.5813 272.678 86.3116L283.161 74.1061ZM289.357 101.568C289.357 101.568 316.239 82.4272 309.21 73.4884C301.89 64.1939 291.257 81.435 286.212 89.9714C275.458 108.177 275.27 112.744 279.539 109.375L289.357 101.568ZM296.63 128.946C296.63 128.946 323.512 109.805 316.483 100.866C309.172 91.5625 298.539 108.813 293.494 117.34C282.73 135.545 282.543 140.113 286.821 136.743L296.63 128.946ZM249.68 73.9096C249.68 73.9096 212.062 54.3285 205.95 67.5916C199.576 81.407 225.531 83.5036 238.242 84.2805C265.386 85.9465 270.703 83.4942 264.347 80.5365L249.68 73.9096ZM254.978 95.4376C254.978 95.4376 214.225 83.7189 210.864 97.9367C207.364 112.754 233.197 109.646 245.833 107.886C272.753 104.142 277.489 100.67 270.684 99.0693L254.978 95.4376ZM264.338 118.931C264.338 118.931 229.594 109.974 227.085 122.076C224.474 134.665 246.264 131.436 256.887 129.658C279.567 125.867 283.489 122.825 277.695 121.627L264.338 118.931ZM269.776 138.334C269.776 138.334 236.183 125.736 232.402 137.501C228.461 149.754 250.476 148.855 261.23 148.209C284.181 146.843 288.374 144.241 282.758 142.434L269.776 138.334ZM247.312 40.0545C247.312 40.0545 231.98 -7.60664 214.552 1.05136C196.431 10.065 217.36 31.5556 227.834 41.8422C250.176 63.8008 257.093 65.3358 254.154 57.67L247.312 40.0545Z" fill="white"/>
<path d="M288.749 171.843C288.6 171.841 288.458 171.783 288.351 171.681C288.243 171.578 288.178 171.439 288.169 171.291C286.755 146.384 279.745 116.31 268.981 88.7826C259.901 65.6073 221.731 18.8915 221.338 18.4235C221.241 18.3027 221.196 18.1485 221.211 17.9944C221.227 17.8402 221.303 17.6985 221.422 17.5998C221.482 17.5506 221.55 17.5137 221.624 17.4913C221.698 17.4689 221.775 17.4614 221.852 17.4692C221.929 17.477 222.003 17.5001 222.071 17.537C222.138 17.5739 222.198 17.6239 222.246 17.6841C222.63 18.1521 260.931 65.0176 270.076 88.3521C280.933 116.03 287.925 146.197 289.357 171.254C289.365 171.408 289.311 171.56 289.208 171.676C289.105 171.791 288.96 171.862 288.805 171.871L288.749 171.843Z" fill="#CCCCCC"/>
<path d="M261.858 73.8066H261.792C261.637 73.7879 261.496 73.7084 261.399 73.5855C261.303 73.4627 261.259 73.3066 261.277 73.1514L266.631 28.3357C266.65 28.1818 266.729 28.0416 266.851 27.946C266.973 27.8503 267.128 27.807 267.282 27.8256C267.436 27.8443 267.576 27.9233 267.671 28.0452C267.767 28.1672 267.81 28.3222 267.792 28.4761L262.438 73.2918C262.42 73.4333 262.351 73.5634 262.244 73.6581C262.138 73.7527 262 73.8055 261.858 73.8066Z" fill="#CCCCCC"/>
<path d="M269.523 89.1571C269.432 89.1531 269.343 89.1308 269.261 89.0915C269.192 89.0559 269.131 89.0071 269.081 88.9479C269.031 88.8886 268.993 88.8201 268.97 88.7462C268.946 88.6723 268.938 88.5944 268.944 88.5172C268.951 88.4399 268.973 88.3647 269.009 88.2959L288.421 50.6313C288.451 50.5541 288.497 50.484 288.556 50.4258C288.615 50.3676 288.686 50.3224 288.764 50.2933C288.841 50.2642 288.924 50.2518 289.007 50.2568C289.09 50.2619 289.17 50.2844 289.244 50.3228C289.317 50.3612 289.382 50.4146 289.433 50.4796C289.485 50.5446 289.522 50.6198 289.542 50.7001C289.563 50.7804 289.566 50.8642 289.552 50.9459C289.538 51.0276 289.506 51.1053 289.46 51.1742L270.048 88.8856C269.991 88.9723 269.913 89.0428 269.821 89.0904C269.729 89.1379 269.627 89.1609 269.523 89.1571Z" fill="#CCCCCC"/>
<path d="M266.697 83.5691H266.584L225.999 75.3042C225.918 75.295 225.84 75.269 225.769 75.2278C225.698 75.1867 225.637 75.1313 225.589 75.0651C225.541 74.9989 225.507 74.9235 225.489 74.8436C225.472 74.7637 225.472 74.681 225.488 74.6008C225.504 74.5207 225.537 74.4448 225.584 74.378C225.631 74.3112 225.692 74.2549 225.762 74.2128C225.832 74.1707 225.91 74.1436 225.991 74.1333C226.073 74.123 226.155 74.1297 226.233 74.153L266.818 82.4178C266.969 82.4515 267.1 82.5429 267.184 82.6724C267.268 82.8019 267.298 82.9592 267.268 83.1104C267.24 83.2409 267.168 83.3577 267.064 83.4412C266.96 83.5248 266.83 83.5699 266.697 83.5691Z" fill="#CCCCCC"/>
<path d="M277.189 110.526C277.084 110.519 276.982 110.485 276.894 110.425C276.807 110.366 276.737 110.284 276.692 110.188C276.647 110.093 276.629 109.986 276.639 109.881C276.649 109.776 276.687 109.675 276.749 109.59L300.589 82.3336C300.64 82.2759 300.701 82.2286 300.77 82.1945C300.838 82.1604 300.913 82.1402 300.989 82.135C301.066 82.1297 301.143 82.1396 301.215 82.1641C301.288 82.1885 301.355 82.2271 301.413 82.2775C301.471 82.3279 301.518 82.3892 301.552 82.4578C301.586 82.5265 301.606 82.6012 301.612 82.6777C301.617 82.7542 301.607 82.8309 301.582 82.9036C301.558 82.9762 301.519 83.0434 301.469 83.1012L277.61 110.292C277.56 110.358 277.497 110.413 277.424 110.453C277.352 110.493 277.272 110.518 277.189 110.526Z" fill="#CCCCCC"/>
<path d="M273.82 101.568L243.184 101.306C243.03 101.304 242.882 101.241 242.773 101.13C242.665 101.02 242.604 100.871 242.604 100.717C242.609 100.563 242.673 100.416 242.783 100.308C242.892 100.2 243.04 100.139 243.194 100.136L273.829 100.398C273.984 100.401 274.131 100.464 274.24 100.574C274.348 100.685 274.409 100.833 274.409 100.988C274.409 101.065 274.394 101.141 274.364 101.212C274.335 101.283 274.291 101.348 274.236 101.402C274.181 101.456 274.116 101.498 274.045 101.527C273.973 101.556 273.897 101.57 273.82 101.568Z" fill="#CCCCCC"/>
<path d="M256.223 124.744C256.07 124.744 255.922 124.684 255.812 124.578C255.702 124.471 255.638 124.326 255.633 124.173C255.63 124.019 255.687 123.869 255.792 123.756C255.897 123.643 256.041 123.574 256.195 123.564L279.688 122.628C279.843 122.623 279.994 122.679 280.108 122.784C280.222 122.89 280.289 123.035 280.297 123.19C280.301 123.267 280.289 123.344 280.263 123.416C280.236 123.489 280.196 123.555 280.144 123.612C280.091 123.669 280.028 123.714 279.958 123.746C279.888 123.778 279.812 123.796 279.735 123.798L256.242 124.734L256.223 124.744Z" fill="#CCCCCC"/>
<path d="M284.537 138.007C284.411 138.008 284.288 137.965 284.191 137.885C284.065 137.792 283.982 137.653 283.959 137.498C283.937 137.344 283.976 137.187 284.069 137.062L296.649 120.298C296.742 120.173 296.881 120.09 297.035 120.067C297.19 120.044 297.347 120.083 297.472 120.176C297.535 120.222 297.587 120.28 297.627 120.347C297.666 120.414 297.692 120.487 297.702 120.564C297.713 120.641 297.708 120.719 297.688 120.794C297.667 120.869 297.632 120.939 297.585 121L285.005 137.773C284.95 137.845 284.879 137.904 284.798 137.945C284.717 137.985 284.628 138.007 284.537 138.007Z" fill="#CCCCCC"/>
<path d="M285.463 144.241L257.992 142.874C257.914 142.87 257.838 142.852 257.768 142.819C257.698 142.786 257.635 142.739 257.583 142.682C257.531 142.624 257.49 142.557 257.464 142.484C257.438 142.411 257.426 142.334 257.43 142.256C257.44 142.102 257.51 141.957 257.626 141.853C257.741 141.75 257.893 141.696 258.048 141.704L285.529 143.071C285.605 143.074 285.68 143.093 285.749 143.125C285.818 143.158 285.88 143.204 285.931 143.26C285.983 143.317 286.022 143.383 286.048 143.455C286.074 143.527 286.085 143.603 286.081 143.679C286.078 143.757 286.059 143.833 286.026 143.903C285.993 143.973 285.946 144.036 285.889 144.088C285.831 144.14 285.764 144.181 285.691 144.207C285.618 144.233 285.541 144.244 285.463 144.241Z" fill="#CCCCCC"/>
<path d="M337.898 107.372C333.153 109.159 334.603 105.163 349.271 92.0305C356.141 85.881 370.424 73.5633 374.299 83.8686C378.043 93.7715 348.793 103.197 348.793 103.197L337.898 107.372ZM345.386 119.54C345.386 119.54 376.087 120.12 375.787 109.543C375.469 98.5358 357.957 105.546 349.458 109.131C331.327 116.788 328.66 120.092 333.724 119.942L345.386 119.54ZM333.789 136.341C333.789 136.341 357.189 141.236 358.481 133.102C359.838 124.678 345.433 127.486 338.413 128.974C323.437 132.204 320.919 134.347 324.813 134.965L333.789 136.341ZM322.801 153.676C322.801 153.676 346.2 158.561 347.492 150.437C348.849 142.013 334.444 144.821 327.424 146.3C312.448 149.529 309.931 151.672 313.824 152.29L322.801 153.676ZM329.006 101.643C329.006 101.643 320.929 72.0376 310.885 75.2761C300.411 78.6738 312.055 93.5094 317.887 100.651C330.335 115.908 334.257 117.499 332.685 112.716L329.006 101.643ZM320.142 115.094C320.142 115.094 306.336 87.6501 297.126 92.8542C287.541 98.2456 301.9 110.414 309.013 116.301C324.242 128.778 328.417 129.592 325.917 125.184L320.142 115.094ZM312.233 131.605C312.233 131.605 299.925 108.719 292.249 113.334C284.265 118.136 296.695 128.141 302.864 132.915C316.033 143.108 319.571 143.707 317.362 140.038L312.233 131.605ZM304.586 144.035C304.586 144.035 294.777 119.97 286.652 123.742C278.228 127.673 289.507 138.934 295.132 144.334C307.141 155.866 310.604 156.839 308.789 152.955L304.586 144.035ZM345.77 83.7657C345.77 83.7657 363.554 52.1757 350.45 47.1774C336.747 41.9639 335.605 63.6604 335.287 74.3214C334.585 96.9914 337.159 101.465 339.798 96.0928L345.77 83.7657Z" fill="#7B2869"/>
<path opacity="0.65" d="M337.898 107.372C333.153 109.159 334.603 105.163 349.271 92.0305C356.141 85.881 370.424 73.5633 374.299 83.8686C378.043 93.7715 348.793 103.197 348.793 103.197L337.898 107.372ZM345.386 119.54C345.386 119.54 376.087 120.12 375.787 109.543C375.469 98.5358 357.957 105.546 349.458 109.131C331.327 116.788 328.66 120.092 333.724 119.942L345.386 119.54ZM333.789 136.341C333.789 136.341 357.189 141.236 358.481 133.102C359.838 124.678 345.433 127.486 338.413 128.974C323.437 132.204 320.919 134.347 324.813 134.965L333.789 136.341ZM322.801 153.676C322.801 153.676 346.2 158.561 347.492 150.437C348.849 142.013 334.444 144.821 327.424 146.3C312.448 149.529 309.931 151.672 313.824 152.29L322.801 153.676ZM329.006 101.643C329.006 101.643 320.929 72.0376 310.885 75.2761C300.411 78.6738 312.055 93.5094 317.887 100.651C330.335 115.908 334.257 117.499 332.685 112.716L329.006 101.643ZM320.142 115.094C320.142 115.094 306.336 87.6501 297.126 92.8542C287.541 98.2456 301.9 110.414 309.013 116.301C324.242 128.778 328.417 129.592 325.917 125.184L320.142 115.094ZM312.233 131.605C312.233 131.605 299.925 108.719 292.249 113.334C284.265 118.136 296.695 128.141 302.864 132.915C316.033 143.108 319.571 143.707 317.362 140.038L312.233 131.605ZM304.586 144.035C304.586 144.035 294.777 119.97 286.652 123.742C278.228 127.673 289.507 138.934 295.132 144.334C307.141 155.866 310.604 156.839 308.789 152.955L304.586 144.035ZM345.77 83.7657C345.77 83.7657 363.554 52.1757 350.45 47.1774C336.747 41.9639 335.605 63.6604 335.287 74.3214C334.585 96.9914 337.159 101.465 339.798 96.0928L345.77 83.7657Z" fill="#E5E5E5"/>
<path d="M295.235 172.19C295.161 172.191 295.087 172.178 295.018 172.15C294.949 172.123 294.886 172.082 294.833 172.03C294.723 171.92 294.661 171.77 294.661 171.614C294.661 171.458 294.723 171.308 294.833 171.197C307.684 157.906 321.331 137.96 330.448 119.146C338.301 102.954 344.385 59.7105 344.441 59.2425C344.464 59.0883 344.546 58.9493 344.671 58.8549C344.795 58.7605 344.951 58.7182 345.105 58.737C345.259 58.7602 345.397 58.843 345.49 58.9674C345.583 59.0918 345.623 59.2478 345.601 59.4016C345.545 59.8415 339.433 103.263 331.505 119.624C322.333 138.531 308.601 158.599 295.675 171.974C295.623 172.041 295.556 172.095 295.48 172.132C295.404 172.17 295.32 172.189 295.235 172.19Z" fill="#CCCCCC"/>
<path d="M335.352 108.373C335.259 108.373 335.167 108.351 335.084 108.309C335.001 108.266 334.93 108.205 334.875 108.13C334.785 108.002 334.749 107.845 334.774 107.691C334.798 107.538 334.881 107.399 335.006 107.306L361.476 88.1368C361.536 88.0758 361.608 88.0284 361.688 87.998C361.767 87.9677 361.853 87.9549 361.938 87.9608C362.023 87.9667 362.106 87.9909 362.181 88.0319C362.256 88.0729 362.321 88.1297 362.372 88.1983C362.422 88.267 362.458 88.3458 362.475 88.4293C362.492 88.5129 362.491 88.5992 362.472 88.6824C362.453 88.7655 362.416 88.8435 362.363 88.9109C362.311 88.9783 362.244 89.0335 362.169 89.0728L335.699 108.261C335.598 108.334 335.477 108.373 335.352 108.373Z" fill="#CCCCCC"/>
<path d="M330.962 119.989C330.823 119.984 330.691 119.931 330.587 119.838C330.484 119.745 330.417 119.618 330.398 119.48C330.379 119.343 330.409 119.203 330.483 119.085C330.557 118.967 330.671 118.88 330.803 118.838L360.362 110.638C360.436 110.618 360.513 110.612 360.589 110.622C360.665 110.631 360.738 110.656 360.805 110.694C360.871 110.731 360.929 110.782 360.976 110.842C361.023 110.903 361.058 110.972 361.078 111.045C361.099 111.119 361.104 111.196 361.095 111.272C361.085 111.348 361.061 111.421 361.023 111.488C360.985 111.554 360.935 111.613 360.874 111.66C360.814 111.707 360.745 111.741 360.671 111.761L331.112 119.97C331.064 119.986 331.013 119.992 330.962 119.989Z" fill="#CCCCCC"/>
<path d="M332.535 115.739C332.435 115.741 332.336 115.716 332.249 115.667C332.161 115.617 332.089 115.545 332.039 115.459L316.501 89.8216C316.461 89.756 316.433 89.683 316.421 89.6068C316.409 89.5307 316.412 89.4528 316.431 89.3778C316.449 89.3029 316.482 89.2323 316.528 89.1703C316.574 89.1083 316.631 89.0561 316.698 89.0166C316.831 88.937 316.99 88.9129 317.141 88.9497C317.291 88.9865 317.421 89.0812 317.503 89.2132L333.05 114.86C333.129 114.993 333.153 115.152 333.117 115.302C333.08 115.453 332.985 115.583 332.853 115.665C332.758 115.722 332.646 115.748 332.535 115.739Z" fill="#CCCCCC"/>
<path d="M323.334 134.553C323.192 134.535 323.061 134.466 322.966 134.358C322.871 134.25 322.818 134.112 322.818 133.968C322.818 133.824 322.871 133.686 322.966 133.578C323.061 133.47 323.192 133.401 323.334 133.383L349.542 132.709C349.697 132.709 349.846 132.768 349.96 132.874C350.073 132.98 350.141 133.125 350.15 133.28C350.153 133.435 350.095 133.584 349.988 133.697C349.881 133.809 349.734 133.874 349.579 133.879L323.371 134.553H323.334Z" fill="#CCCCCC"/>
<path d="M326.46 128.375C326.38 128.375 326.3 128.359 326.226 128.327C326.151 128.294 326.085 128.247 326.03 128.188L311.11 111.761C311.002 111.65 310.941 111.5 310.941 111.345C310.941 111.189 311.002 111.04 311.11 110.928C311.168 110.877 311.235 110.837 311.308 110.811C311.381 110.786 311.459 110.775 311.536 110.779C311.613 110.783 311.689 110.803 311.759 110.837C311.829 110.87 311.891 110.917 311.943 110.975L326.863 127.402C326.925 127.487 326.963 127.588 326.973 127.693C326.983 127.799 326.965 127.905 326.92 128C326.875 128.096 326.805 128.178 326.718 128.237C326.63 128.297 326.528 128.331 326.423 128.338L326.46 128.375Z" fill="#CCCCCC"/>
<path d="M317.531 142.443C317.454 142.444 317.379 142.429 317.308 142.4C317.237 142.371 317.173 142.329 317.119 142.275L305.073 130.238C304.97 130.126 304.915 129.979 304.919 129.827C304.922 129.676 304.984 129.531 305.092 129.424C305.199 129.317 305.343 129.255 305.495 129.251C305.646 129.248 305.794 129.303 305.906 129.405L317.943 141.442C318.023 141.524 318.078 141.629 318.1 141.742C318.122 141.855 318.11 141.972 318.066 142.078C318.022 142.185 317.948 142.276 317.853 142.341C317.758 142.406 317.646 142.442 317.531 142.443Z" fill="#CCCCCC"/>
<path d="M312.355 151.991C312.21 151.982 312.074 151.921 311.971 151.819C311.869 151.716 311.808 151.58 311.8 151.435C311.792 151.29 311.837 151.148 311.927 151.034C312.018 150.921 312.146 150.845 312.289 150.821L327.396 149.267C327.545 149.262 327.69 149.314 327.803 149.412C327.915 149.51 327.986 149.647 328.001 149.795C328.017 149.944 327.976 150.092 327.886 150.211C327.796 150.33 327.665 150.411 327.518 150.437L312.411 151.991H312.355Z" fill="#CCCCCC"/>
<path d="M309.491 155.547C309.4 155.553 309.31 155.537 309.228 155.501C309.145 155.465 309.071 155.411 309.013 155.342L296.227 140.057C296.129 139.937 296.082 139.784 296.096 139.63C296.11 139.475 296.184 139.333 296.302 139.233C296.361 139.183 296.429 139.146 296.503 139.123C296.576 139.099 296.653 139.091 296.73 139.098C296.807 139.105 296.881 139.127 296.949 139.163C297.017 139.199 297.077 139.248 297.126 139.308L309.949 154.583C310.047 154.703 310.094 154.856 310.08 155.011C310.066 155.165 309.992 155.307 309.874 155.407C309.768 155.499 309.631 155.549 309.491 155.547Z" fill="#CCCCCC"/>
<path d="M111.976 70.2498C114.597 76.7363 117.292 71.5228 116.871 44.3507C116.665 31.6118 115.767 5.59096 101.68 11.3193C88.1547 16.823 105.985 55.3113 105.985 55.3113L111.976 70.2498ZM92.6287 74.1061C92.6287 74.1061 63.2664 43.5083 74.2738 33.905C85.7398 23.9178 95.0436 48.2351 99.3679 60.2159C108.597 85.7781 107.736 91.5813 103.112 86.3116L92.6287 74.1061ZM86.4324 101.568C86.4324 101.568 59.5505 82.4272 66.5799 73.4884C73.8994 64.1939 84.5323 81.435 89.5774 89.9714C100.332 108.177 100.519 112.744 96.2511 109.375L86.4324 101.568ZM79.1597 128.946C79.1597 128.946 52.2778 109.805 59.3071 100.866C66.6173 91.5625 77.2503 108.813 82.2953 117.34C93.0593 135.545 93.2465 140.113 88.969 136.743L79.1597 128.946ZM126.109 73.9096C126.109 73.9096 163.727 54.3285 169.839 67.5916C176.214 81.407 150.258 83.5036 137.547 84.2805C110.403 85.9465 105.087 83.4942 111.442 80.5365L126.109 73.9096ZM120.812 95.4376C120.812 95.4376 161.574 83.7189 164.925 97.9367C168.426 112.735 142.574 109.627 129.956 107.868C103.037 104.124 98.3009 100.651 105.115 99.0505L120.812 95.4376ZM111.452 118.931C111.452 118.931 146.196 109.974 148.704 122.076C151.316 134.665 129.526 131.436 118.902 129.658C96.223 125.867 92.3011 122.825 98.095 121.627L111.452 118.931ZM106.014 138.334C106.014 138.334 139.597 125.755 143.416 137.558C147.357 149.81 125.342 148.911 114.587 148.265C91.6366 146.899 87.4433 144.297 93.0593 142.49L106.014 138.334ZM128.478 40.0545C128.478 40.0545 143.819 -7.60664 161.238 1.05136C179.358 10.065 158.43 31.5556 147.956 41.8422C125.613 63.8008 118.696 65.3358 121.645 57.67L128.478 40.0545Z" fill="#7B2869"/>
<path opacity="0.65" d="M111.976 70.2498C114.597 76.7363 117.292 71.5228 116.871 44.3507C116.665 31.6118 115.767 5.59096 101.68 11.3193C88.1547 16.823 105.985 55.3113 105.985 55.3113L111.976 70.2498ZM92.6287 74.1061C92.6287 74.1061 63.2664 43.5083 74.2738 33.905C85.7398 23.9178 95.0436 48.2351 99.3679 60.2159C108.597 85.7781 107.736 91.5813 103.112 86.3116L92.6287 74.1061ZM86.4324 101.568C86.4324 101.568 59.5505 82.4272 66.5799 73.4884C73.8994 64.1939 84.5323 81.435 89.5774 89.9714C100.332 108.177 100.519 112.744 96.2511 109.375L86.4324 101.568ZM79.1597 128.946C79.1597 128.946 52.2778 109.805 59.3071 100.866C66.6173 91.5625 77.2503 108.813 82.2953 117.34C93.0593 135.545 93.2465 140.113 88.969 136.743L79.1597 128.946ZM126.109 73.9096C126.109 73.9096 163.727 54.3285 169.839 67.5916C176.214 81.407 150.258 83.5036 137.547 84.2805C110.403 85.9465 105.087 83.4942 111.442 80.5365L126.109 73.9096ZM120.812 95.4376C120.812 95.4376 161.574 83.7189 164.925 97.9367C168.426 112.735 142.574 109.627 129.956 107.868C103.037 104.124 98.3009 100.651 105.115 99.0505L120.812 95.4376ZM111.452 118.931C111.452 118.931 146.196 109.974 148.704 122.076C151.316 134.665 129.526 131.436 118.902 129.658C96.223 125.867 92.3011 122.825 98.095 121.627L111.452 118.931ZM106.014 138.334C106.014 138.334 139.597 125.755 143.416 137.558C147.357 149.81 125.342 148.911 114.587 148.265C91.6366 146.899 87.4433 144.297 93.0593 142.49L106.014 138.334ZM128.478 40.0545C128.478 40.0545 143.819 -7.60664 161.238 1.05136C179.358 10.065 158.43 31.5556 147.956 41.8422C125.613 63.8008 118.696 65.3358 121.645 57.67L128.478 40.0545Z" fill="white"/>
<path d="M87.0408 171.843C86.886 171.834 86.7413 171.763 86.6379 171.648C86.5345 171.532 86.4809 171.38 86.4886 171.225C87.9019 146.197 94.9126 116.001 105.761 88.3521C114.896 65.0176 153.197 18.1521 153.581 17.6841C153.629 17.6239 153.689 17.5739 153.757 17.537C153.824 17.5001 153.899 17.477 153.975 17.4692C154.052 17.4614 154.129 17.4689 154.203 17.4913C154.277 17.5137 154.345 17.5506 154.405 17.5998C154.524 17.6985 154.6 17.8402 154.616 17.9944C154.632 18.1485 154.586 18.3027 154.489 18.4235C154.105 18.8915 115.926 65.6166 106.847 88.7826C96.0639 116.31 89.0626 146.384 87.6586 171.291C87.6489 171.446 87.5787 171.591 87.4631 171.694C87.3474 171.797 87.1957 171.851 87.0408 171.843Z" fill="#CCCCCC"/>
<path d="M113.932 73.8066C113.789 73.8055 113.652 73.7527 113.545 73.6581C113.439 73.5634 113.37 73.4333 113.352 73.2918L107.998 28.4761C107.979 28.3222 108.023 28.1672 108.118 28.0452C108.214 27.9233 108.354 27.8443 108.508 27.8256C108.662 27.807 108.817 27.8503 108.939 27.946C109.061 28.0416 109.14 28.1818 109.159 28.3357L114.512 73.1514C114.531 73.3066 114.487 73.4627 114.391 73.5855C114.294 73.7084 114.153 73.7879 113.998 73.8066H113.932Z" fill="#CCCCCC"/>
<path d="M106.266 89.157C106.158 89.1561 106.053 89.1261 105.96 89.07C105.868 89.014 105.793 88.9341 105.742 88.8388L86.3669 51.1741C86.3312 51.1053 86.3094 51.0301 86.3028 50.9529C86.2961 50.8756 86.3048 50.7978 86.3283 50.7239C86.3518 50.65 86.3896 50.5815 86.4396 50.5222C86.4896 50.4629 86.5507 50.4141 86.6196 50.3785C86.7595 50.3112 86.9197 50.2999 87.0676 50.3469C87.2155 50.3939 87.3399 50.4956 87.4152 50.6312L106.781 88.2959C106.817 88.3647 106.839 88.4399 106.845 88.5171C106.852 88.5944 106.843 88.6722 106.82 88.7461C106.796 88.82 106.758 88.8885 106.708 88.9478C106.658 89.0071 106.597 89.0559 106.528 89.0915C106.446 89.1308 106.357 89.1531 106.266 89.157Z" fill="#CCCCCC"/>
<path d="M109.093 83.5691C108.958 83.5695 108.828 83.523 108.723 83.4376C108.619 83.3522 108.548 83.2333 108.522 83.1011C108.492 82.9485 108.523 82.7901 108.609 82.6603C108.695 82.5306 108.828 82.44 108.981 82.4085L149.556 74.1436C149.635 74.1203 149.717 74.1137 149.798 74.124C149.879 74.1343 149.957 74.1613 150.028 74.2035C150.098 74.2456 150.158 74.3018 150.205 74.3686C150.253 74.4354 150.285 74.5113 150.302 74.5915C150.318 74.6716 150.318 74.7543 150.3 74.8342C150.283 74.9141 150.249 74.9896 150.201 75.0557C150.153 75.1219 150.091 75.1773 150.021 75.2185C149.95 75.2597 149.872 75.2857 149.79 75.2949L109.215 83.5597L109.093 83.5691Z" fill="#CCCCCC"/>
<path d="M98.6379 110.526C98.5549 110.525 98.473 110.508 98.3973 110.474C98.3215 110.44 98.2537 110.391 98.1979 110.329L74.3393 83.1385C74.2889 83.0808 74.2504 83.0136 74.2259 82.941C74.2015 82.8683 74.1916 82.7916 74.1968 82.7151C74.202 82.6386 74.2222 82.5639 74.2563 82.4952C74.2904 82.4265 74.3377 82.3653 74.3955 82.3149C74.4532 82.2645 74.5204 82.226 74.593 82.2015C74.6657 82.1771 74.7424 82.1672 74.8189 82.1724C74.8954 82.1776 74.9701 82.1978 75.0388 82.2319C75.1075 82.266 75.1687 82.3133 75.2191 82.371L99.0778 109.515C99.1401 109.6 99.1783 109.701 99.1883 109.806C99.1984 109.912 99.18 110.018 99.135 110.113C99.09 110.209 99.0202 110.291 98.9327 110.35C98.8452 110.41 98.7434 110.444 98.6379 110.451V110.526Z" fill="#CCCCCC"/>
<path d="M101.979 101.568C101.902 101.57 101.826 101.556 101.754 101.527C101.683 101.498 101.618 101.456 101.563 101.402C101.508 101.348 101.464 101.283 101.435 101.212C101.405 101.141 101.39 101.065 101.39 100.988C101.39 100.833 101.451 100.685 101.559 100.574C101.668 100.464 101.815 100.401 101.97 100.398L132.605 100.136C132.682 100.135 132.759 100.149 132.83 100.178C132.902 100.206 132.967 100.249 133.022 100.303C133.077 100.357 133.12 100.421 133.15 100.492C133.18 100.563 133.195 100.64 133.195 100.717C133.195 100.871 133.134 101.02 133.026 101.13C132.917 101.241 132.769 101.304 132.615 101.306L101.979 101.568Z" fill="#CCCCCC"/>
<path d="M119.567 124.744L96.0732 123.808C95.9308 123.785 95.8018 123.711 95.7105 123.599C95.6192 123.487 95.5719 123.346 95.5777 123.202C95.5835 123.058 95.6418 122.921 95.7418 122.817C95.8417 122.713 95.9763 122.649 96.12 122.638L119.614 123.574C119.768 123.583 119.912 123.652 120.016 123.765C120.121 123.879 120.178 124.028 120.175 124.182C120.168 124.337 120.1 124.483 119.986 124.588C119.872 124.693 119.722 124.749 119.567 124.744Z" fill="#CCCCCC"/>
<path d="M91.2528 138.007C91.1621 138.007 91.0726 137.985 90.9914 137.945C90.9103 137.904 90.8396 137.845 90.7848 137.773L78.205 121C78.1573 120.939 78.1223 120.869 78.1021 120.794C78.0819 120.719 78.0769 120.641 78.0874 120.564C78.0979 120.487 78.1236 120.414 78.1631 120.347C78.2026 120.28 78.255 120.222 78.3173 120.176C78.4427 120.083 78.5999 120.044 78.7543 120.067C78.9087 120.09 79.0477 120.173 79.141 120.298L91.7208 137.062C91.8137 137.187 91.853 137.344 91.8302 137.498C91.8074 137.653 91.7243 137.792 91.5991 137.885C91.5013 137.965 91.3789 138.008 91.2528 138.007Z" fill="#CCCCCC"/>
<path d="M90.3355 144.241C90.1839 144.241 90.038 144.183 89.9282 144.078C89.8184 143.973 89.7531 143.831 89.7459 143.679C89.7421 143.603 89.7534 143.527 89.7791 143.455C89.8048 143.383 89.8445 143.317 89.8958 143.26C89.9471 143.204 90.009 143.158 90.078 143.125C90.1471 143.093 90.2219 143.074 90.2981 143.071L117.779 141.704C117.856 141.698 117.934 141.707 118.008 141.732C118.081 141.756 118.149 141.796 118.207 141.847C118.264 141.899 118.311 141.962 118.344 142.032C118.377 142.103 118.395 142.179 118.397 142.256C118.401 142.334 118.389 142.411 118.363 142.484C118.337 142.557 118.296 142.624 118.244 142.682C118.192 142.739 118.129 142.786 118.059 142.819C117.989 142.852 117.913 142.87 117.835 142.874L90.3636 144.241H90.3355Z" fill="#CCCCCC"/>
<path d="M37.9008 107.372C42.637 109.159 41.1862 105.163 26.5191 92.0305C19.6488 85.881 5.36546 73.5633 1.49042 83.8686C-2.25358 93.7715 26.9964 103.197 26.9964 103.197L37.9008 107.372ZM30.4128 119.54C30.4128 119.54 -0.297343 120.12 0.00217678 109.543C0.329777 98.5358 17.7862 105.546 26.3319 109.131C44.4622 116.788 47.1298 120.092 42.0754 119.942L30.4128 119.54ZM42.0005 136.341C42.0005 136.341 18.6005 141.236 17.3088 133.102C15.961 124.678 30.3567 127.486 37.3767 128.974C52.3527 132.204 54.8705 134.347 50.9767 134.965L42.0005 136.341ZM52.9891 153.676C52.9891 153.676 29.5891 158.561 28.2975 150.437C26.9403 142.013 41.3453 144.821 48.3653 146.3C63.3413 149.529 65.8591 151.672 61.9654 152.29L52.9891 153.676ZM46.7835 101.643C46.7835 101.643 54.8611 72.0095 64.9231 75.2761C75.397 78.6738 63.7531 93.5094 57.9219 100.651C45.4731 115.908 41.5512 117.499 43.1237 112.716L46.7835 101.643ZM55.6474 115.094C55.6474 115.094 69.4534 87.6501 78.6636 92.8542C88.2576 98.2737 73.89 110.488 66.7577 116.338C51.529 128.815 47.3544 129.63 49.8535 125.221L55.6474 115.094ZM63.5566 131.605C63.5566 131.605 75.865 108.719 83.5402 113.334C91.5243 118.136 79.0942 128.141 72.9259 132.915C59.7564 143.108 56.2183 143.707 58.4273 140.038L63.5566 131.605ZM71.2037 144.035C71.2037 144.035 81.013 119.97 89.1375 123.742C97.5614 127.673 86.2827 138.934 80.6573 144.334C68.6484 155.866 65.1852 156.839 67.0011 152.955L71.2037 144.035ZM30.0197 83.7657C30.0197 83.7657 12.2357 52.1757 25.3397 47.1774C39.0427 41.9639 40.1847 63.6604 40.5123 74.3214C41.2049 96.9914 38.6403 101.465 35.9914 96.0928L30.0197 83.7657Z" fill="#7B2869"/>
<path opacity="0.65" d="M37.9008 107.372C42.637 109.159 41.1862 105.163 26.5191 92.0305C19.6488 85.881 5.36546 73.5633 1.49042 83.8686C-2.25358 93.7715 26.9964 103.197 26.9964 103.197L37.9008 107.372ZM30.4128 119.54C30.4128 119.54 -0.297343 120.12 0.00217678 109.543C0.329777 98.5358 17.7862 105.546 26.3319 109.131C44.4622 116.788 47.1298 120.092 42.0754 119.942L30.4128 119.54ZM42.0005 136.341C42.0005 136.341 18.6005 141.236 17.3088 133.102C15.961 124.678 30.3567 127.486 37.3767 128.974C52.3527 132.204 54.8705 134.347 50.9767 134.965L42.0005 136.341ZM52.9891 153.676C52.9891 153.676 29.5891 158.561 28.2975 150.437C26.9403 142.013 41.3453 144.821 48.3653 146.3C63.3413 149.529 65.8591 151.672 61.9654 152.29L52.9891 153.676ZM46.7835 101.643C46.7835 101.643 54.8611 72.0095 64.9231 75.2761C75.397 78.6738 63.7531 93.5094 57.9219 100.651C45.4731 115.908 41.5512 117.499 43.1237 112.716L46.7835 101.643ZM55.6474 115.094C55.6474 115.094 69.4534 87.6501 78.6636 92.8542C88.2576 98.2737 73.89 110.488 66.7577 116.338C51.529 128.815 47.3544 129.63 49.8535 125.221L55.6474 115.094ZM63.5566 131.605C63.5566 131.605 75.865 108.719 83.5402 113.334C91.5243 118.136 79.0942 128.141 72.9259 132.915C59.7564 143.108 56.2183 143.707 58.4273 140.038L63.5566 131.605ZM71.2037 144.035C71.2037 144.035 81.013 119.97 89.1375 123.742C97.5614 127.673 86.2827 138.934 80.6573 144.334C68.6484 155.866 65.1852 156.839 67.0011 152.955L71.2037 144.035ZM30.0197 83.7657C30.0197 83.7657 12.2357 52.1757 25.3397 47.1774C39.0427 41.9639 40.1847 63.6604 40.5123 74.3214C41.2049 96.9914 38.6403 101.465 35.9914 96.0928L30.0197 83.7657Z" fill="#E5E5E5"/>
<path d="M80.5543 172.19C80.4757 172.191 80.3976 172.175 80.3252 172.145C80.2527 172.114 80.1873 172.069 80.1331 172.012C67.207 158.636 53.4759 138.578 44.3031 119.661C36.3751 103.3 30.2631 59.8789 30.2069 59.439C30.1854 59.2853 30.2255 59.1292 30.3184 59.0048C30.4113 58.8804 30.5495 58.7976 30.703 58.7744C30.8577 58.7557 31.0137 58.798 31.1378 58.8923C31.2619 58.9867 31.3443 59.1257 31.3675 59.2799C31.4237 59.7105 37.5077 102.963 45.3607 119.184C54.4774 137.998 68.1242 157.944 80.9755 171.235C81.0858 171.345 81.1478 171.495 81.1478 171.651C81.1478 171.808 81.0858 171.957 80.9755 172.068C80.9173 172.116 80.85 172.151 80.7775 172.172C80.7051 172.193 80.6291 172.199 80.5543 172.19Z" fill="#CCCCCC"/>
<path d="M40.4374 108.373C40.313 108.373 40.1918 108.334 40.0911 108.261L13.621 89.0822C13.5452 89.0429 13.4788 88.9877 13.4264 88.9203C13.374 88.8529 13.3369 88.7749 13.3176 88.6918C13.2983 88.6086 13.2973 88.5223 13.3147 88.4387C13.332 88.3551 13.3673 88.2763 13.418 88.2077C13.4688 88.1391 13.5339 88.0823 13.6087 88.0413C13.6836 88.0003 13.7665 87.9761 13.8516 87.9702C13.9368 87.9643 14.0222 87.977 14.1019 88.0074C14.1817 88.0378 14.2539 88.0851 14.3136 88.1462L40.7837 107.315C40.9083 107.409 40.9916 107.547 41.0161 107.701C41.0406 107.854 41.0042 108.012 40.9147 108.139C40.8585 108.212 40.7862 108.271 40.7034 108.312C40.6206 108.353 40.5296 108.374 40.4374 108.373Z" fill="#CCCCCC"/>
<path d="M44.8366 119.989C44.784 119.999 44.7301 119.999 44.6775 119.989L15.1092 111.761C15.0355 111.741 14.9664 111.707 14.9061 111.66C14.8457 111.613 14.7952 111.554 14.7573 111.488C14.7195 111.421 14.6952 111.348 14.6857 111.272C14.6762 111.196 14.6818 111.119 14.7021 111.045C14.7223 110.972 14.7569 110.903 14.8039 110.842C14.8509 110.782 14.9093 110.731 14.9758 110.694C15.0422 110.656 15.1155 110.631 15.1914 110.622C15.2673 110.612 15.3444 110.618 15.4181 110.638L44.9863 118.838C45.1183 118.879 45.2314 118.966 45.3058 119.083C45.3802 119.2 45.4112 119.339 45.3934 119.476C45.3755 119.613 45.31 119.74 45.2082 119.834C45.1064 119.927 44.9748 119.982 44.8366 119.989Z" fill="#CCCCCC"/>
<path d="M43.2547 115.739C43.1457 115.742 43.0382 115.713 42.9459 115.655C42.8138 115.574 42.7192 115.444 42.6824 115.293C42.6456 115.142 42.6696 114.983 42.7493 114.85L58.3056 89.2038C58.3405 89.1284 58.3908 89.0612 58.4534 89.0067C58.516 88.9521 58.5895 88.9114 58.6689 88.8872C58.7483 88.8629 58.832 88.8558 58.9144 88.8661C58.9968 88.8765 59.0761 88.9041 59.1471 88.9472C59.218 88.9903 59.2791 89.0479 59.3263 89.1163C59.3734 89.1847 59.4056 89.2622 59.4207 89.3439C59.4359 89.4255 59.4335 89.5095 59.414 89.5902C59.3944 89.6709 59.358 89.7466 59.3071 89.8122L43.7508 115.459C43.7007 115.545 43.6283 115.617 43.5411 115.667C43.4538 115.716 43.355 115.741 43.2547 115.739Z" fill="#CCCCCC"/>
<path d="M52.4556 134.553L26.2476 133.879C26.0929 133.874 25.9462 133.809 25.8394 133.697C25.7326 133.584 25.6741 133.435 25.6767 133.28C25.6883 133.126 25.7573 132.982 25.8699 132.876C25.9825 132.771 26.1306 132.711 26.2851 132.709L52.4931 133.383C52.5701 133.384 52.6461 133.401 52.7167 133.432C52.7872 133.462 52.8509 133.507 52.9041 133.563C52.9572 133.619 52.9987 133.684 53.0262 133.756C53.0536 133.828 53.0665 133.905 53.064 133.982C53.0616 134.06 53.0439 134.136 53.012 134.206C52.9802 134.277 52.9346 134.341 52.8781 134.394C52.8216 134.447 52.7552 134.488 52.6827 134.515C52.6102 134.543 52.5331 134.556 52.4556 134.553Z" fill="#CCCCCC"/>
<path d="M49.3294 128.375C49.2232 128.37 49.1204 128.336 49.0323 128.277C48.9442 128.217 48.8741 128.135 48.8296 128.038C48.7852 127.942 48.7682 127.835 48.7804 127.729C48.7926 127.624 48.8335 127.523 48.8988 127.439L63.7812 110.975C63.8328 110.917 63.8953 110.87 63.9651 110.837C64.0349 110.803 64.1107 110.783 64.188 110.779C64.2654 110.775 64.3429 110.786 64.416 110.811C64.4891 110.837 64.5565 110.877 64.6142 110.928C64.7223 111.04 64.7828 111.189 64.7828 111.345C64.7828 111.5 64.7223 111.65 64.6142 111.761L49.7412 128.198C49.6327 128.309 49.4847 128.373 49.3294 128.375Z" fill="#CCCCCC"/>
<path d="M58.2588 142.443C58.1437 142.442 58.0316 142.406 57.9365 142.341C57.8414 142.276 57.7674 142.185 57.7236 142.078C57.6798 141.972 57.6681 141.855 57.6901 141.742C57.712 141.629 57.7665 141.524 57.847 141.442L69.884 129.405C69.996 129.303 70.1432 129.248 70.2948 129.251C70.4465 129.255 70.5909 129.317 70.6981 129.424C70.8054 129.531 70.8672 129.676 70.8707 129.827C70.8742 129.979 70.8192 130.126 70.717 130.238L58.6707 142.238C58.6197 142.298 58.5569 142.348 58.486 142.383C58.4152 142.419 58.3379 142.439 58.2588 142.443Z" fill="#CCCCCC"/>
<path d="M63.4349 151.991H63.3787L48.2717 150.437C48.1249 150.411 47.9935 150.33 47.9038 150.211C47.814 150.092 47.7727 149.944 47.7882 149.795C47.8036 149.647 47.8746 149.51 47.9869 149.412C48.0991 149.314 48.2444 149.262 48.3934 149.267L63.5004 150.821C63.6432 150.845 63.7721 150.921 63.8624 151.034C63.9527 151.148 63.9981 151.29 63.99 151.435C63.9819 151.58 63.9208 151.716 63.8184 151.819C63.7161 151.921 63.5795 151.982 63.4349 151.991Z" fill="#CCCCCC"/>
<path d="M66.2991 155.548C66.1616 155.547 66.0289 155.497 65.9247 155.407C65.8066 155.307 65.7326 155.165 65.7186 155.011C65.7046 154.857 65.7517 154.703 65.8498 154.583L78.6355 139.299C78.6844 139.239 78.7445 139.19 78.8125 139.154C78.8806 139.118 78.955 139.096 79.0317 139.089C79.1084 139.082 79.1856 139.09 79.259 139.113C79.3324 139.136 79.4005 139.174 79.4592 139.224C79.5773 139.324 79.6513 139.466 79.6653 139.62C79.6793 139.774 79.6322 139.928 79.5341 140.047L66.7483 155.342C66.6932 155.407 66.6244 155.459 66.5467 155.495C66.4691 155.53 66.3845 155.548 66.2991 155.548Z" fill="#CCCCCC"/>
</svg>
